<svg width="59" height="56" viewBox="0 0 59 56" fill="none" xmlns="http://www.w3.org/2000/svg">
<rect y="9.72266" width="59" height="46" rx="20" fill="#F5F6FB"/>
<path d="M56.9145 11.2543C56.9109 11.2543 56.9072 11.2543 56.9037 11.2543H53.2239V9.99511C53.2437 9.49673 52.9213 9.04884 52.4423 8.90962C49.8877 8.24015 47.257 7.90447 44.616 7.91098C40.2741 7.91098 34.3582 8.88792 29.9837 13.3384C25.6418 8.8445 19.6825 7.91098 15.3514 7.91098C12.7104 7.90447 10.0798 8.24015 7.5251 8.90962C7.04613 9.04884 6.72374 9.49673 6.74355 9.99511V11.2434H3.08548C2.48602 11.2434 2 11.7294 2 12.3289V46.9992C2 47.5986 2.48602 48.0847 3.08548 48.0847C3.27191 48.0841 3.45509 48.0355 3.61737 47.9436C3.72592 47.8893 14.5807 41.9517 29.7341 45.7726H29.8969H29.9946C30.0811 45.783 30.1685 45.783 30.2551 45.7726C45.4518 41.9191 56.3066 47.8459 56.3718 47.9436C56.7076 48.1374 57.1214 48.1374 57.4573 47.9436C57.791 47.7509 57.9977 47.3955 58 47.01V12.3397C58 11.7403 57.5141 11.2543 56.9145 11.2543ZM4.17096 45.2733V13.4252H6.76526V40.6491C6.75848 41.2486 7.23894 41.74 7.8384 41.7468C7.89701 41.7475 7.95563 41.7434 8.01357 41.7346C10.2592 41.3917 12.5263 41.2103 14.7978 41.1919C17.9444 41.1373 21.0777 41.6106 24.0678 42.5921C17.3155 41.7756 10.4663 42.6985 4.17096 45.2733ZM14.7978 39.0317C12.8235 39.0362 10.8514 39.1631 8.89281 39.4117V10.8526C11.0062 10.3818 13.1644 10.1415 15.3297 10.1362C19.3894 10.1362 24.9905 11.0697 28.8765 15.4551L28.9091 42.4944C26.6513 41.0182 22.2442 39.0317 14.7978 39.0317ZM31.0801 15.4551C34.9661 11.1132 40.5672 10.1362 44.6269 10.1362C46.792 10.1426 48.9502 10.3828 51.0638 10.8526V39.4117C49.1161 39.1608 47.155 39.0303 45.1913 39.0209C37.7883 39.0209 33.3704 41.0073 31.0801 42.4836V15.4551ZM55.8182 45.2733C49.5094 42.6914 42.6445 41.7684 35.8779 42.5921C38.8821 41.607 42.0304 41.1336 45.1913 41.1919C47.4771 41.2046 49.7589 41.3824 52.019 41.7237C52.6117 41.8137 53.1651 41.4061 53.2551 40.8134C53.2639 40.7555 53.268 40.6969 53.2673 40.6383V13.4252H55.8616L55.8182 45.2733Z" fill="#071F41"/>
</svg>
