<svg width="59" height="56" viewBox="0 0 59 56" fill="none" xmlns="http://www.w3.org/2000/svg">
<rect y="9.72266" width="59" height="46" rx="20" fill="#F5F6FB"/>
<g clip-path="url(#clip0_2233_59)">
<path d="M57.794 31.2001L56.7975 16.6657C56.7328 15.7243 56.3047 14.8651 55.5921 14.2466C54.8794 13.6281 53.9685 13.3252 53.0274 13.3938C51.1776 13.5286 49.743 15.087 49.7613 16.9416L49.8789 28.7903L44.7464 35.3638C43.927 36.4131 42.5676 36.8344 41.3345 36.5184L46.9189 29.2664C47.8991 27.9935 47.7361 26.1495 46.5482 25.0683C45.9139 24.4909 45.0938 24.2057 44.2377 24.2656C43.3821 24.3254 42.6092 24.7216 42.0612 25.3815L33.6249 35.5413C32.2336 37.217 31.4791 39.3391 31.5002 41.517L31.6312 55.0092C31.6364 55.5469 32.0734 55.9802 32.6112 55.981L46.6585 56.0001C46.6589 56.0001 46.6594 56.0001 46.6598 56.0001C46.9346 56.0001 47.1968 55.8849 47.3826 55.6825C47.5688 55.4797 47.6613 55.2082 47.6374 54.9338L47.064 48.3295L56.3892 35.9362C57.4114 34.578 57.9102 32.8959 57.794 31.2001ZM54.821 34.7564L45.2698 47.4501C45.1243 47.6435 45.0553 47.8839 45.0762 48.125L45.5894 54.036L33.5845 54.0197L33.4629 41.498C33.4462 39.784 34.0401 38.114 35.1351 36.7953L43.5713 26.6353C43.7735 26.3918 44.0587 26.2456 44.3744 26.2237C44.6901 26.2012 44.993 26.3067 45.2271 26.5199C45.6656 26.9189 45.7256 27.5994 45.3638 28.069L39.0267 36.2986C38.8605 36.5143 38.7915 36.7894 38.8361 37.058C38.8808 37.3266 39.035 37.5647 39.2619 37.7151C41.5298 39.2193 44.6187 38.7171 46.2934 36.5719L51.6372 29.7278C51.774 29.5527 51.8472 29.3363 51.8451 29.1141L51.7241 16.9223C51.7158 16.1013 52.3511 15.4113 53.1701 15.3515C53.5885 15.3214 53.9901 15.4553 54.3056 15.729C54.6212 16.0029 54.8107 16.3832 54.8393 16.8001L55.8359 31.3345C55.9197 32.5597 55.5595 33.7749 54.821 34.7564Z" fill="#071F41"/>
<path d="M17.9387 25.3815C17.3907 24.7216 16.6178 24.3253 15.7622 24.2656C14.9071 24.206 14.0861 24.4909 13.452 25.0683C12.2638 26.1496 12.1009 27.9937 13.0811 29.2666L18.6656 36.5185C17.4333 36.8341 16.073 36.4133 15.2536 35.3639L10.121 28.7904L10.2386 16.9417C10.257 15.0872 8.82245 13.5287 6.97263 13.394C6.03287 13.3258 5.12097 13.6281 4.40797 14.2467C3.69537 14.8652 3.26723 15.7244 3.20259 16.6659L2.2059 31.2001C2.08958 32.8959 2.58851 34.578 3.61045 35.9364L12.9358 48.3297L12.3625 54.9339C12.3385 55.2082 12.431 55.4798 12.6172 55.6826C12.8032 55.8851 13.0654 56.0002 13.34 56.0002C13.3404 56.0002 13.341 56.0002 13.3413 56.0002L27.3886 55.9811C27.9264 55.9803 28.3634 55.5471 28.3686 55.0093L28.4998 41.5171C28.5208 39.3394 27.7663 37.2173 26.375 35.5416L17.9387 25.3815ZM26.4155 54.0197L14.4106 54.036L14.9238 48.125C14.9448 47.8839 14.8759 47.6435 14.7303 47.4501L5.17894 34.7564C4.44043 33.775 4.0802 32.5597 4.16407 31.3345L5.16075 16.8001C5.18941 16.3832 5.37888 16.0029 5.69449 15.729C5.98066 15.4806 6.33905 15.3473 6.71407 15.3473C6.75254 15.3473 6.79114 15.3487 6.83 15.3515C7.64899 15.4112 8.284 16.1011 8.27589 16.9223L8.15485 29.1141C8.15263 29.3363 8.22591 29.5527 8.36277 29.7278L13.7065 36.5719C15.3816 38.7171 18.4701 39.219 20.7381 37.7153C20.965 37.5648 21.1193 37.3268 21.1639 37.0581C21.2085 36.7895 21.1395 36.5143 20.9734 36.2986L14.6361 28.0692C14.2744 27.5994 14.3345 26.919 14.7731 26.5199C15.0072 26.3067 15.3097 26.2019 15.6256 26.2237C15.9413 26.2456 16.2266 26.3919 16.4287 26.6354L24.865 36.7954C25.96 38.1142 26.5539 39.7843 26.5371 41.4981L26.4155 54.0197Z" fill="#071F41"/>
<path d="M49.2247 11.0429C49.2247 8.09331 48.0759 5.32022 45.9902 3.23447C43.9044 1.1486 41.1315 0 38.1817 0C35.2321 0 32.459 1.1486 30.3731 3.23434L30 3.60766L29.6266 3.23434C27.541 1.1486 24.7679 0 21.8182 0C18.8686 0 16.0955 1.1486 14.0096 3.23434C9.70413 7.53995 9.70413 14.5456 14.0097 18.8514L29.3059 34.1476C29.4976 34.3391 29.7489 34.4351 30 34.4351C30.2511 34.4351 30.5023 34.3393 30.694 34.1476L45.9902 18.8513C48.0759 16.7656 49.2247 13.9925 49.2247 11.0429ZM30.0001 32.0659L15.3977 17.4635C11.8573 13.9231 11.8573 8.16253 15.3977 4.62213C17.1126 2.90722 19.3929 1.96275 21.8182 1.96275C24.2436 1.96275 26.5238 2.90722 28.2389 4.62227L29.3061 5.68948C29.49 5.87358 29.7396 5.97695 30 5.97695C30.2604 5.97695 30.5099 5.87345 30.694 5.68948L31.7611 4.62227C33.4761 2.90722 35.7564 1.96275 38.1817 1.96275C40.6072 1.96275 42.8874 2.90722 44.6023 4.62227C46.3173 6.33731 47.2619 8.6175 47.2619 11.0429C47.2619 13.4684 46.3173 15.7485 44.6023 17.4636L30.0001 32.0659Z" fill="#071F41"/>
</g>
<defs>
<clipPath id="clip0_2233_59">
<rect width="56" height="56" fill="white" transform="translate(2)"/>
</clipPath>
</defs>
</svg>
