<svg width="99" height="31" viewBox="0 0 99 31" fill="none" xmlns="http://www.w3.org/2000/svg">
<rect x="6" y="5" width="33" height="26" rx="8" fill="#FB7C2F"/>
<rect width="33" height="26" rx="8" fill="#FB7C2F" fill-opacity="0.2"/>
<path d="M25.6484 12.625V24H23.1094V12.625H25.6484ZM37.8859 12.625V24H35.3469L31.05 16.6484V24H28.5031V12.625H31.05L35.3547 19.9766V12.625H37.8859ZM44.7719 21.4766L47.3031 12.625H50.1391L46.2406 24H44.3891L44.7719 21.4766ZM42.4672 12.625L44.9906 21.4766L45.3891 24H43.5141L39.6391 12.625H42.4672ZM59.6187 22.0312V24H53.5641V22.0312H59.6187ZM54.4312 12.625V24H51.8844V12.625H54.4312ZM58.8375 17.2031V19.1094H53.5641V17.2031H58.8375ZM59.6266 12.625V14.6016H53.5641V12.625H59.6266ZM67.5672 21C67.5672 20.8073 67.5385 20.6354 67.4813 20.4844C67.424 20.3281 67.3198 20.1849 67.1688 20.0547C67.0177 19.9245 66.8042 19.7943 66.5281 19.6641C66.2521 19.5286 65.8901 19.3906 65.4422 19.25C64.9318 19.0833 64.4448 18.8958 63.9813 18.6875C63.5229 18.474 63.1141 18.2266 62.7547 17.9453C62.3953 17.6641 62.1115 17.3359 61.9031 16.9609C61.7 16.5859 61.5984 16.1484 61.5984 15.6484C61.5984 15.1641 61.7052 14.7266 61.9188 14.3359C62.1323 13.9453 62.4318 13.612 62.8172 13.3359C63.2026 13.0547 63.6557 12.8411 64.1766 12.6953C64.6974 12.5443 65.2703 12.4688 65.8953 12.4688C66.7286 12.4688 67.4604 12.6172 68.0906 12.9141C68.726 13.2057 69.2208 13.6172 69.575 14.1484C69.9292 14.6745 70.1063 15.2865 70.1063 15.9844H67.575C67.575 15.6771 67.5099 15.4062 67.3797 15.1719C67.2547 14.9323 67.062 14.7448 66.8016 14.6094C66.5464 14.474 66.226 14.4062 65.8406 14.4062C65.4656 14.4062 65.1505 14.4635 64.8953 14.5781C64.6453 14.6875 64.4552 14.8385 64.325 15.0312C64.2 15.224 64.1375 15.4349 64.1375 15.6641C64.1375 15.8464 64.1844 16.013 64.2781 16.1641C64.3771 16.3099 64.5177 16.4479 64.7 16.5781C64.8875 16.7031 65.1167 16.8229 65.3875 16.9375C65.6583 17.0521 65.9682 17.1615 66.3172 17.2656C66.9266 17.4583 67.4656 17.6719 67.9344 17.9062C68.4083 18.1406 68.8068 18.4062 69.1297 18.7031C69.4526 19 69.6948 19.3359 69.8563 19.7109C70.0229 20.0859 70.1063 20.5104 70.1063 20.9844C70.1063 21.4896 70.0073 21.9375 69.8094 22.3281C69.6167 22.7188 69.3354 23.0521 68.9656 23.3281C68.601 23.599 68.1635 23.8047 67.6531 23.9453C67.1427 24.0859 66.5724 24.1562 65.9422 24.1562C65.3693 24.1562 64.8042 24.0833 64.2469 23.9375C63.6896 23.7865 63.1844 23.5573 62.7313 23.25C62.2833 22.9427 61.924 22.5521 61.6531 22.0781C61.3875 21.599 61.2547 21.0312 61.2547 20.375H63.8016C63.8016 20.7188 63.851 21.0104 63.95 21.25C64.049 21.4844 64.1896 21.6745 64.3719 21.8203C64.5594 21.9661 64.7859 22.0703 65.0516 22.1328C65.3172 22.1953 65.6141 22.2266 65.9422 22.2266C66.3224 22.2266 66.6297 22.1745 66.8641 22.0703C67.1036 21.9609 67.2807 21.8125 67.3953 21.625C67.5099 21.4375 67.5672 21.2292 67.5672 21ZM77.7031 12.625V24H75.1641V12.625H77.7031ZM81.1641 12.625V14.6016H71.7734V12.625H81.1641ZM85.9328 12.625V24H83.3937V12.625H85.9328ZM95.0531 22.2188L98.1781 24.6953L96.5844 26.0547L93.5141 23.5781L95.0531 22.2188ZM98.2875 18.0625V18.5703C98.2875 19.4349 98.1677 20.2109 97.9281 20.8984C97.6885 21.5859 97.35 22.1719 96.9125 22.6562C96.475 23.1406 95.9568 23.513 95.3578 23.7734C94.7641 24.0286 94.1052 24.1562 93.3812 24.1562C92.6573 24.1562 91.9958 24.0286 91.3969 23.7734C90.7979 23.513 90.2771 23.1406 89.8344 22.6562C89.3969 22.1719 89.0583 21.5859 88.8187 20.8984C88.5792 20.2109 88.4594 19.4349 88.4594 18.5703V18.0625C88.4594 17.1979 88.5792 16.4219 88.8187 15.7344C89.0583 15.0417 89.3943 14.4531 89.8266 13.9688C90.2641 13.4844 90.7823 13.1146 91.3812 12.8594C91.9802 12.599 92.6417 12.4688 93.3656 12.4688C94.0896 12.4688 94.751 12.599 95.35 12.8594C95.949 13.1146 96.4672 13.4844 96.9047 13.9688C97.3422 14.4531 97.6807 15.0417 97.9203 15.7344C98.1651 16.4219 98.2875 17.1979 98.2875 18.0625ZM95.7016 18.5703V18.0469C95.7016 17.4688 95.6495 16.9583 95.5453 16.5156C95.4464 16.0677 95.2953 15.6927 95.0922 15.3906C94.8943 15.0885 94.6495 14.862 94.3578 14.7109C94.0661 14.5547 93.7354 14.4766 93.3656 14.4766C92.9854 14.4766 92.6495 14.5547 92.3578 14.7109C92.0714 14.862 91.8292 15.0885 91.6312 15.3906C91.4385 15.6927 91.2901 16.0677 91.1859 16.5156C91.087 16.9583 91.0375 17.4688 91.0375 18.0469V18.5703C91.0375 19.1432 91.087 19.6536 91.1859 20.1016C91.2901 20.5443 91.4411 20.9193 91.6391 21.2266C91.837 21.5339 92.0818 21.7656 92.3734 21.9219C92.6651 22.0781 93.001 22.1562 93.3812 22.1562C93.751 22.1562 94.0792 22.0781 94.3656 21.9219C94.6573 21.7656 94.9021 21.5339 95.1 21.2266C95.2979 20.9193 95.4464 20.5443 95.5453 20.1016C95.6495 19.6536 95.7016 19.1432 95.7016 18.5703Z" fill="black"/>
</svg>
