<svg width="59" height="56" viewBox="0 0 59 56" fill="none" xmlns="http://www.w3.org/2000/svg">
<rect y="9.72266" width="59" height="46" rx="20" fill="#F5F6FB"/>
<g clip-path="url(#clip0_2233_58)">
<path d="M54.9915 27.5172L52.7424 25.2681V3.86854L54.6321 1.97887C55.0026 1.60841 55.0026 1.00773 54.6321 0.637382C54.2615 0.266928 53.661 0.266928 53.2905 0.637382L51.4008 2.52706H30.001L27.7521 0.278084C27.3816 -0.0923693 26.7809 -0.0923693 26.4106 0.278084C26.0401 0.648538 26.0401 1.24923 26.4106 1.61957L28.5635 3.77251L21.8865 32.0667C21.3359 32.7546 21.1516 33.6717 21.4095 34.5283C21.6965 35.4812 22.4806 36.1961 23.4559 36.3941L27.7139 37.2584C28.5211 37.4223 29.2077 37.9326 29.5973 38.6584C29.9869 39.3842 30.0329 40.2382 29.7234 41.0015C29.22 42.2433 27.9028 42.9433 26.5925 42.6652L10.6404 39.2856C8.23853 38.7766 5.81686 40.1402 5.00584 42.4572C4.53553 43.8009 4.67279 45.2795 5.38231 46.5136C6.09194 47.7479 7.30064 48.6105 8.69813 48.8801L8.76419 48.8929C10.0212 49.1354 11.0887 49.9219 11.693 51.0507C12.2972 52.1794 12.3599 53.5038 11.8647 54.6846C11.662 55.1678 11.8895 55.7236 12.3726 55.9263C12.4925 55.9765 12.6167 56.0004 12.739 56.0004C13.1098 56.0004 13.4619 55.7816 13.6141 55.4183C14.3312 53.7083 14.2406 51.79 13.3654 50.1552C12.4903 48.5205 10.944 47.3814 9.12371 47.0302L9.05765 47.0174C8.20157 46.8522 7.46142 46.3239 7.02688 45.568C6.59233 44.8121 6.50833 43.9067 6.79642 43.0838C7.29299 41.6649 8.77666 40.8303 10.2469 41.1416L26.1986 44.5212C28.4105 44.9899 30.6317 43.8094 31.4811 41.7143C32.0034 40.4263 31.9258 38.9854 31.2684 37.761C30.6111 36.5364 29.453 35.6756 28.0909 35.3991L23.8329 34.5348C23.4094 34.4489 23.2672 34.119 23.2258 33.9812C23.1921 33.8696 23.1443 33.6167 23.2893 33.3624L51.4965 26.7061L53.6495 28.859C53.8348 29.0442 54.0777 29.1369 54.3204 29.1369C54.5631 29.1369 54.806 29.0444 54.9913 28.859C55.3619 28.4883 55.3619 27.8877 54.9915 27.5172ZM49.5035 4.42428L40.701 13.2267L31.8984 4.42428H49.5035ZM30.1406 5.34959L39.3593 14.5683L24.4459 29.4818L30.1406 5.34959ZM25.7875 30.8235L40.701 15.91L49.9197 25.1287L25.7875 30.8235ZM50.845 23.3708L42.0425 14.5683L50.845 5.76576V23.3708Z" fill="#071F41"/>
</g>
<defs>
<clipPath id="clip0_2233_58">
<rect width="56" height="56" fill="white" transform="translate(2)"/>
</clipPath>
</defs>
</svg>
