<svg width="59" height="56" viewBox="0 0 59 56" fill="none" xmlns="http://www.w3.org/2000/svg">
<rect y="9.72266" width="59" height="46" rx="20" fill="#F5F6FB"/>
<path d="M57.9927 39.0843C56.3202 25.6667 43.8004 23.6788 40.2667 23.3858V11.2C40.2667 11.1162 40.1491 2.80005 30 2.80005C19.8509 2.80005 19.7333 11.1162 19.7333 11.2V23.3858C16.1996 23.6788 3.68483 25.6667 2.00729 39.0843C2.00729 39.103 2 39.1777 2 39.2001V42.9334C2 43.4488 2.4179 43.8667 2.93333 43.8667H7.6V45.7334H4.8C4.28457 45.7334 3.86667 46.1513 3.86667 46.6667C3.86667 48.9262 5.23203 53.2001 10.4 53.2001C15.568 53.2001 16.9333 48.9262 16.9333 46.6667C16.9333 46.1513 16.5154 45.7334 16 45.7334H13.2V43.8667H27.2V45.7334H24.4C23.8846 45.7334 23.4667 46.1513 23.4667 46.6667C23.4667 48.9262 24.832 53.2001 30 53.2001C35.168 53.2001 36.5333 48.9262 36.5333 46.6667C36.5333 46.1513 36.1154 45.7334 35.6 45.7334H32.8V43.8667H46.8V45.7334H44C43.4846 45.7334 43.0667 46.1513 43.0667 46.6667C43.0667 48.9262 44.432 53.2001 49.6 53.2001C54.768 53.2001 56.1333 48.9262 56.1333 46.6667C56.1333 46.1513 55.7154 45.7334 55.2 45.7334H52.4V43.8667H57.0667C57.5821 43.8667 58 43.4488 58 42.9334V39.2001C58 39.1786 58 39.1066 57.9927 39.0843ZM21.6 11.2C21.6 10.933 21.6934 4.66672 30 4.66672C38.2487 4.66672 38.4 10.9366 38.4 11.2V23.3334H36.5333V17.7334H34.6667V23.3334H21.6V11.2ZM12.8268 27.0107C15.3041 25.9228 17.9633 25.3085 20.6667 25.2H39.3333C42.0367 25.3085 44.6959 25.9228 47.1732 27.0107C51.88 28.9584 55.2223 33.2295 55.9811 38.2667H4.01888C4.77767 33.2295 8.11999 28.9584 12.8268 27.0107ZM10.4 51.3334C8.12591 51.5043 6.1166 49.8627 5.83132 47.6H14.9641C14.6679 49.855 12.6686 51.4902 10.4 51.3334ZM11.3333 45.7334H9.46667V43.8667H11.3333V45.7334ZM30 51.3334C27.7259 51.5043 25.7166 49.8627 25.4313 47.6H34.5641C34.2679 49.855 32.2686 51.4902 30 51.3334ZM30.9333 45.7334H29.0667V43.8667H30.9333V45.7334ZM49.6 51.3334C47.3241 51.507 45.312 49.8646 45.0268 47.6H54.1641C53.8679 49.855 51.8686 51.4902 49.6 51.3334ZM50.5333 45.7334H48.6667V43.8667H50.5333V45.7334ZM56.1333 42H3.86667V40.1334H56.1333V42Z" fill="#071F41"/>
<path d="M30 27.0667C27.4228 27.0667 25.3333 29.1562 25.3333 31.7333C25.3333 34.3105 27.4228 36.4 30 36.4C32.5771 36.4 34.6666 34.3105 34.6666 31.7333C34.6635 29.1571 32.5762 27.0698 30 27.0667ZM30 34.5333C28.4537 34.5333 27.2 33.2796 27.2 31.7333C27.2 30.187 28.4537 28.9333 30 28.9333C31.5463 28.9333 32.8 30.187 32.8 31.7333C32.8 33.2796 31.5463 34.5333 30 34.5333Z" fill="#071F41"/>
<path d="M31.8667 31.7334C31.8667 32.7642 31.0309 33.6 30 33.6C28.9692 33.6 28.1334 32.7642 28.1334 31.7334C28.1334 30.7025 28.9692 29.8667 30 29.8667C31.0309 29.8667 31.8667 30.7025 31.8667 31.7334Z" fill="#071F41"/>
<path d="M34.6667 14H36.5334V15.8667H34.6667V14Z" fill="#071F41"/>
<path d="M34.6667 11.2001V12.1334H36.5333V11.2001C36.5333 10.7221 36.3465 6.53345 30 6.53345V8.40011C34.3308 8.40011 34.6667 10.5466 34.6667 11.2001Z" fill="#071F41"/>
<path d="M21.6 30.8H23.4666V32.6667H21.6V30.8Z" fill="#071F41"/>
<path d="M17.8666 30.8H19.7333V32.6667H17.8666V30.8Z" fill="#071F41"/>
<path d="M36.5333 30.8H38.4V32.6667H36.5333V30.8Z" fill="#071F41"/>
<path d="M40.2667 30.8H42.1333V32.6667H40.2667V30.8Z" fill="#071F41"/>
</svg>
