<svg width="59" height="56" viewBox="0 0 59 56" fill="none" xmlns="http://www.w3.org/2000/svg">
<rect y="9.72266" width="59" height="46" rx="20" fill="#F5F6FB"/>
<g clip-path="url(#clip0_2233_64)">
<path d="M56.285 23.6511H52.9473C52.3287 23.6511 51.7835 23.9689 51.4648 24.4492C48.9133 24.1826 48.5732 23.7737 48.2976 23.4404C47.9225 22.9871 47.4777 22.6026 46.9753 22.2975L39.3058 17.6389C37.7438 14.0107 35.1312 11.7424 33.1923 10.4709C32.4374 9.97577 31.9867 9.13708 31.9867 8.22748C31.9867 7.69086 32.1447 7.17218 32.4438 6.72699L34.351 3.88837C34.7313 3.32312 34.8624 2.64465 34.721 1.97815C34.5796 1.31165 34.184 0.745117 33.6072 0.382385C33.2086 0.132446 32.7493 0 32.2793 0H23.2174C22.747 0 22.2877 0.132446 21.8895 0.382385C21.3128 0.74469 20.9171 1.31122 20.7757 1.97815C20.6343 2.64465 20.7655 3.32312 21.1457 3.88837L23.0529 6.72699C23.352 7.17218 23.5101 7.69086 23.5101 8.22748C23.5101 9.13708 23.0593 9.97577 22.3044 10.4709C19.4312 12.3551 13.0105 17.9084 15.4381 28.7618C16.7921 34.8154 17.838 39.0819 18.4669 41.1348H4.94069C3.82515 41.1348 2.84975 41.9278 2.62203 43.0198L2.15975 45.239C2.01363 45.9401 2.1888 46.6608 2.64083 47.2167C3.09243 47.7721 3.76235 48.0908 4.47841 48.0908H51.0183C51.7348 48.0908 52.4043 47.7721 52.8563 47.2167C53.3079 46.6608 53.4831 45.9401 53.337 45.239L52.8747 43.0198C52.647 41.9278 51.6716 41.1348 50.5561 41.1348H37.0299C37.2179 40.5209 37.4447 39.704 37.7075 38.6923H38.5979C41.2105 38.6923 43.7996 38.3022 46.2956 37.5327L51.3939 36.8901C51.6985 37.4344 52.28 37.804 52.9473 37.804H56.285C57.2655 37.804 58.0636 37.0063 58.0636 36.0254V25.4301C58.0636 24.4492 57.2655 23.6511 56.285 23.6511ZM22.3809 2.31866C22.4292 2.09009 22.5646 1.89612 22.7624 1.77179C22.8991 1.68591 23.0564 1.64062 23.2174 1.64062H32.2793C32.4404 1.64062 32.598 1.68591 32.7343 1.77179C32.9322 1.89612 33.0676 2.09009 33.1163 2.31866C33.1646 2.54681 33.1193 2.77966 32.9894 2.97321L32.0456 4.37799H23.4511L22.5073 2.97321C22.377 2.77966 22.3322 2.54681 22.3809 2.31866ZM23.2038 11.8428C24.4231 11.0435 25.1511 9.69165 25.1511 8.22748C25.1511 7.44519 24.9401 6.68726 24.5427 6.01862H30.954C30.5567 6.68726 30.346 7.44519 30.346 8.22748C30.346 9.69165 31.0736 11.0435 32.293 11.8428C32.7954 12.1722 33.3479 12.5756 33.9135 13.0605H21.5879C22.1621 12.5674 22.7158 12.1628 23.2038 11.8428ZM51.2687 43.3548L51.731 45.5739C51.7925 45.8687 51.6648 46.0811 51.5832 46.1815C51.5015 46.2819 51.3195 46.4502 51.0183 46.4502H4.47841C4.17721 46.4502 3.9952 46.2819 3.91359 46.1815C3.83199 46.0811 3.70424 45.8687 3.76577 45.5739L4.22805 43.3548C4.29812 43.019 4.59804 42.7755 4.94069 42.7755H50.5556C50.8987 42.7755 51.1982 43.019 51.2687 43.3548ZM35.3081 41.1348H20.1887C19.8507 40.1278 18.9928 37.1362 17.039 28.4033C16.2153 24.7209 16.4123 21.3871 17.6205 18.4698H20.6424C21.0957 18.4698 21.4627 18.1028 21.4627 17.6495C21.4627 17.1962 21.0957 16.8292 20.6424 16.8292H18.434C18.8971 16.0311 19.4124 15.324 19.9469 14.7011H35.5559C36.0916 15.3257 36.6056 16.0333 37.0662 16.8292H23.9279C23.4746 16.8292 23.1076 17.1962 23.1076 17.6495C23.1076 18.1028 23.4746 18.4698 23.9279 18.4698H34.7988C34.5899 18.9804 34.5471 19.5418 34.6809 20.0878C34.8488 20.7701 35.2722 21.3469 35.872 21.7101L37.2824 22.5667H28.1649C26.717 22.5667 25.5429 23.6805 25.4925 25.1024C25.4788 25.481 25.5446 25.8488 25.6822 26.188H24.841C24.1202 26.188 23.4481 26.4734 22.9474 26.9921C22.4475 27.5104 22.1856 28.1931 22.2117 28.9143C22.2514 30.041 22.997 30.9741 24.0254 31.3133C23.8626 31.6551 23.7716 32.037 23.7716 32.4404C23.7716 33.8909 24.952 35.0714 26.4025 35.0714H27.6454C27.5207 35.3773 27.4519 35.7118 27.4519 36.0617C27.4519 37.5126 28.6323 38.6927 30.0828 38.6927H36.0117C35.667 39.9966 35.4452 40.7277 35.3081 41.1348ZM46.0191 35.9139C45.9708 35.9199 45.9239 35.9301 45.8777 35.9442C43.5185 36.6791 41.0691 37.0516 38.5979 37.0516H30.0828C29.5368 37.0516 29.0925 36.6073 29.0925 36.0613C29.0925 35.5153 29.5368 35.0709 30.0828 35.0709H35.4597C35.9126 35.0709 36.2801 34.7035 36.2801 34.2506C36.2801 33.7973 35.9126 33.4303 35.4597 33.4303H26.4025C25.8565 33.4303 25.4122 32.986 25.4122 32.4399C25.4122 31.8939 25.8565 31.4496 26.4025 31.4496H35.4597C35.9126 31.4496 36.2801 31.0826 36.2801 30.6293C36.2801 30.176 35.9126 29.809 35.4597 29.809H24.8841C24.333 29.809 23.8698 29.3813 23.851 28.8553C23.8416 28.5836 23.9399 28.326 24.1279 28.1307C24.3167 27.9359 24.5697 27.8282 24.841 27.8282H35.4597C35.9126 27.8282 36.2801 27.4608 36.2801 27.0079C36.2801 26.5546 35.9126 26.1876 35.4597 26.1876H28.1218C27.8505 26.1876 27.5971 26.08 27.4087 25.8847C27.2207 25.6899 27.1225 25.4323 27.1319 25.1601C27.1507 24.6346 27.6142 24.2069 28.1649 24.2069H39.472C39.9381 24.2069 40.3359 23.9053 40.4619 23.4562C40.5875 23.0072 40.4043 22.5428 40.0056 22.301L36.7231 20.307C36.4967 20.1699 36.3377 19.9532 36.2745 19.696C36.2113 19.4393 36.2519 19.1731 36.389 18.9471C36.6718 18.4797 37.2824 18.3301 37.7485 18.6121L46.1238 23.6993C46.4694 23.9091 46.7754 24.174 47.0334 24.4859C47.7042 25.2964 48.5655 25.7826 51.1683 26.0671V35.264L46.0191 35.9139ZM56.423 36.0254C56.423 36.1014 56.361 36.1634 56.285 36.1634H52.9473C52.8713 36.1634 52.8089 36.1014 52.8089 36.0254V25.4297C52.8089 25.3536 52.8709 25.2917 52.9473 25.2917H56.285C56.361 25.2917 56.423 25.3536 56.423 25.4297V36.0254Z" fill="#071F41"/>
<path d="M41.3344 53.3537L37.062 49.9165C36.709 49.6324 36.1925 49.6888 35.9088 50.0417C35.6247 50.3946 35.6807 50.9111 36.0336 51.1948L39.9677 54.3594H15.5292L19.4714 51.1884C19.8243 50.9047 19.8803 50.3882 19.5961 50.0353C19.3124 49.6819 18.7959 49.6264 18.443 49.9101L14.1624 53.3533C13.6638 53.7544 13.4793 54.4034 13.6916 55.0067C13.9039 55.61 14.4551 56 15.0947 56H40.4022C41.0418 56 41.5925 55.6104 41.8052 55.0067C42.0176 54.4034 41.833 53.7544 41.3344 53.3537Z" fill="#071F41"/>
</g>
<defs>
<clipPath id="clip0_2233_64">
<rect width="56" height="56" fill="white" transform="translate(2)"/>
</clipPath>
</defs>
</svg>
