<svg width="99" height="31" viewBox="0 0 99 31" fill="none" xmlns="http://www.w3.org/2000/svg">
<rect x="6" y="5" width="33" height="26" rx="8" fill="#FB7C2F"/>
<rect width="33" height="26" rx="8" fill="#FB7C2F" fill-opacity="0.2"/>

<path d="M25.6484 11.625V23H23.1094V11.625H25.6484ZM37.8859 11.625V23H35.3469L31.05 15.6484V23H28.5031V11.625H31.05L35.3547 18.9766V11.625H37.8859ZM44.7719 20.4766L47.3031 11.625H50.1391L46.2406 23H44.3891L44.7719 20.4766ZM42.4672 11.625L44.9906 20.4766L45.3891 23H43.5141L39.6391 11.625H42.4672ZM59.6187 21.0312V23H53.5641V21.0312H59.6187ZM54.4312 11.625V23H51.8844V11.625H54.4312ZM58.8375 16.2031V18.1094H53.5641V16.2031H58.8375ZM59.6266 11.625V13.6016H53.5641V11.625H59.6266ZM67.5672 20C67.5672 19.8073 67.5385 19.6354 67.4813 19.4844C67.424 19.3281 67.3198 19.1849 67.1688 19.0547C67.0177 18.9245 66.8042 18.7943 66.5281 18.6641C66.2521 18.5286 65.8901 18.3906 65.4422 18.25C64.9318 18.0833 64.4448 17.8958 63.9813 17.6875C63.5229 17.474 63.1141 17.2266 62.7547 16.9453C62.3953 16.6641 62.1115 16.3359 61.9031 15.9609C61.7 15.5859 61.5984 15.1484 61.5984 14.6484C61.5984 14.1641 61.7052 13.7266 61.9188 13.3359C62.1323 12.9453 62.4318 12.612 62.8172 12.3359C63.2026 12.0547 63.6557 11.8411 64.1766 11.6953C64.6974 11.5443 65.2703 11.4688 65.8953 11.4688C66.7286 11.4688 67.4604 11.6172 68.0906 11.9141C68.726 12.2057 69.2208 12.6172 69.575 13.1484C69.9292 13.6745 70.1063 14.2865 70.1063 14.9844H67.575C67.575 14.6771 67.5099 14.4062 67.3797 14.1719C67.2547 13.9323 67.062 13.7448 66.8016 13.6094C66.5464 13.474 66.226 13.4062 65.8406 13.4062C65.4656 13.4062 65.1505 13.4635 64.8953 13.5781C64.6453 13.6875 64.4552 13.8385 64.325 14.0312C64.2 14.224 64.1375 14.4349 64.1375 14.6641C64.1375 14.8464 64.1844 15.013 64.2781 15.1641C64.3771 15.3099 64.5177 15.4479 64.7 15.5781C64.8875 15.7031 65.1167 15.8229 65.3875 15.9375C65.6583 16.0521 65.9682 16.1615 66.3172 16.2656C66.9266 16.4583 67.4656 16.6719 67.9344 16.9062C68.4083 17.1406 68.8068 17.4062 69.1297 17.7031C69.4526 18 69.6948 18.3359 69.8563 18.7109C70.0229 19.0859 70.1063 19.5104 70.1063 19.9844C70.1063 20.4896 70.0073 20.9375 69.8094 21.3281C69.6167 21.7188 69.3354 22.0521 68.9656 22.3281C68.601 22.599 68.1635 22.8047 67.6531 22.9453C67.1427 23.0859 66.5724 23.1562 65.9422 23.1562C65.3693 23.1562 64.8042 23.0833 64.2469 22.9375C63.6896 22.7865 63.1844 22.5573 62.7313 22.25C62.2833 21.9427 61.924 21.5521 61.6531 21.0781C61.3875 20.599 61.2547 20.0312 61.2547 19.375H63.8016C63.8016 19.7188 63.851 20.0104 63.95 20.25C64.049 20.4844 64.1896 20.6745 64.3719 20.8203C64.5594 20.9661 64.7859 21.0703 65.0516 21.1328C65.3172 21.1953 65.6141 21.2266 65.9422 21.2266C66.3224 21.2266 66.6297 21.1745 66.8641 21.0703C67.1036 20.9609 67.2807 20.8125 67.3953 20.625C67.5099 20.4375 67.5672 20.2292 67.5672 20ZM77.7031 11.625V23H75.1641V11.625H77.7031ZM81.1641 11.625V13.6016H71.7734V11.625H81.1641ZM85.9328 11.625V23H83.3937V11.625H85.9328ZM95.0531 21.2188L98.1781 23.6953L96.5844 25.0547L93.5141 22.5781L95.0531 21.2188ZM98.2875 17.0625V17.5703C98.2875 18.4349 98.1677 19.2109 97.9281 19.8984C97.6885 20.5859 97.35 21.1719 96.9125 21.6562C96.475 22.1406 95.9568 22.513 95.3578 22.7734C94.7641 23.0286 94.1052 23.1562 93.3812 23.1562C92.6573 23.1562 91.9958 23.0286 91.3969 22.7734C90.7979 22.513 90.2771 22.1406 89.8344 21.6562C89.3969 21.1719 89.0583 20.5859 88.8187 19.8984C88.5792 19.2109 88.4594 18.4349 88.4594 17.5703V17.0625C88.4594 16.1979 88.5792 15.4219 88.8187 14.7344C89.0583 14.0417 89.3943 13.4531 89.8266 12.9688C90.2641 12.4844 90.7823 12.1146 91.3812 11.8594C91.9802 11.599 92.6417 11.4688 93.3656 11.4688C94.0896 11.4688 94.751 11.599 95.35 11.8594C95.949 12.1146 96.4672 12.4844 96.9047 12.9688C97.3422 13.4531 97.6807 14.0417 97.9203 14.7344C98.1651 15.4219 98.2875 16.1979 98.2875 17.0625ZM95.7016 17.5703V17.0469C95.7016 16.4688 95.6495 15.9583 95.5453 15.5156C95.4464 15.0677 95.2953 14.6927 95.0922 14.3906C94.8943 14.0885 94.6495 13.862 94.3578 13.7109C94.0661 13.5547 93.7354 13.4766 93.3656 13.4766C92.9854 13.4766 92.6495 13.5547 92.3578 13.7109C92.0714 13.862 91.8292 14.0885 91.6312 14.3906C91.4385 14.6927 91.2901 15.0677 91.1859 15.5156C91.087 15.9583 91.0375 16.4688 91.0375 17.0469V17.5703C91.0375 18.1432 91.087 18.6536 91.1859 19.1016C91.2901 19.5443 91.4411 19.9193 91.6391 20.2266C91.837 20.5339 92.0818 20.7656 92.3734 20.9219C92.6651 21.0781 93.001 21.1562 93.3812 21.1562C93.751 21.1562 94.0792 21.0781 94.3656 20.9219C94.6573 20.7656 94.9021 20.5339 95.1 20.2266C95.2979 19.9193 95.4464 19.5443 95.5453 19.1016C95.6495 18.6536 95.7016 18.1432 95.7016 17.5703Z" fill="black"/>
</svg>
